


  <!-- Start/End -->

<!--

  <g transform="translate(250,0)">
    <rect x="0" y="0" rx="50" ry="50" width="200" height="100" style="fill:white; stroke:black;" />
    <text x="50" y="65" fill="black">Begin</text>
  </g>

-->



  <!-- Arrow -->

<!--
  
  <g transform="translate(350,100)" stroke-width="3">
    <line x1="0" y1="0" x2="0" y2="100" style="stroke:black;" />
    <line x1="-10" y1="90" x2="0" y2="100" style="stroke:black;" />
    <line x1="10" y1="90" x2="0" y2="100" style="stroke:black;" />
  </g>

-->



  <!-- Input/Output -->

<!--
  
  <g transform="translate(175,200)">
    <polygon points="0,0 400,0 340,100 -60,100" style="fill:white; stroke:black;" />
    <text x="0" y="65" fill="black">Print "Hello World"</text>
  </g>

-->


<svg  version="1.1" xmlns="http://www.w3.org/2000/svg">



  <svg viewBox="0 0 1056 816">



    <g transform="translate(0,0)" style="font: 64px sans-serif;">



      <g transform="translate(1140,0)">
        <rect x="0" y="0" width="200" height="100" style="fill:white; stroke:black;" />
      </g>


<!--
      <g transform="translate(1240,100)" stroke-width="3">
        <line x1="0" y1="0" x2="0" y2="100" style="stroke:black;" />
        <line x1="-10" y1="90" x2="0" y2="100" style="stroke:black;" />
        <line x1="10" y1="90" x2="0" y2="100" style="stroke:black;" />
      </g>



      <g transform="translate(1090,200)">
        <rect x="-150" y="0" width="600" height="100" style="fill:white; stroke:black;" />
        <text x="-50" y="65" fill="black">float weigh,height,bmi</text>
      </g>



      <g transform="translate(1240,300)" stroke-width="3">
        <line x1="0" y1="0" x2="0" y2="100" style="stroke:black;" />
        <line x1="-10" y1="90" x2="0" y2="100" style="stroke:black;" />
        <line x1="10" y1="90" x2="0" y2="100" style="stroke:black;" />
      </g>



      <g transform="translate(1000,400)">
        <polygon points="-60,0 600,0 540,100 -120,100" style="fill:white; stroke:black;" />
        <text x="0" y="65" fill="black">Print "Weight in Pounds?"</text>
      </g>



      <g transform="translate(1240,500)" stroke-width="3">
        <line x1="0" y1="0" x2="0" y2="100" style="stroke:black;" />
        <line x1="-10" y1="90" x2="0" y2="100" style="stroke:black;" />
        <line x1="10" y1="90" x2="0" y2="100" style="stroke:black;" />
      </g>



      <g transform="translate(1110,600)">
        <polygon points="0,0 300,0 240,100 -60,100" style="fill:white; stroke:black;" />
        <text x="0" y="65" fill="black">Read weight</text>
      </g>



      <g transform="translate(1240,700)" stroke-width="3">
        <line x1="0" y1="0" x2="0" y2="100" style="stroke:black;" />
        <line x1="-10" y1="90" x2="0" y2="100" style="stroke:black;" />
        <line x1="10" y1="90" x2="0" y2="100" style="stroke:black;" />
      </g>



      <g transform="translate(1000,800)">
        <polygon points="-60,0 600,0 540,100 -120,100" style="fill:white; stroke:black;" />
        <text x="0" y="65" fill="black">Print "Height in Inches?"</text>
      </g>



      <g transform="translate(1240,900)" stroke-width="3">
        <line x1="0" y1="0" x2="0" y2="100" style="stroke:black;" />
        <line x1="-10" y1="90" x2="0" y2="100" style="stroke:black;" />
        <line x1="10" y1="90" x2="0" y2="100" style="stroke:black;" />
      </g>



      <g transform="translate(1110,1000)">
        <polygon points="0,0 300,0 240,100 -60,100" style="fill:white; stroke:black;" />
        <text x="0" y="65" fill="black">Read height</text>
      </g>


      <g transform="translate(1240,1100)" stroke-width="3">
        <line x1="0" y1="0" x2="0" y2="100" style="stroke:black;" />
        <line x1="-10" y1="90" x2="0" y2="100" style="stroke:black;" />
        <line x1="10" y1="90" x2="0" y2="100" style="stroke:black;" />
      </g>



      <g transform="translate(1090,1200)">
        <rect x="-300" y="0" width="900" height="100" style="fill:white; stroke:black;" />
        <text x="-150" y="65" fill="black">bmi=(width/(height*height))*703</text>
      </g>

-->



<!--

      <g transform="translate(350,300)" stroke-width="3">
        <line x1="0" y1="0" x2="0" y2="100" style="stroke:black;" />
        <line x1="-10" y1="90" x2="0" y2="100" style="stroke:black;" />
        <line x1="10" y1="90" x2="0" y2="100" style="stroke:black;" />
      </g>

      <g transform="translate(250,400)">
        <rect x="0" y="0" rx="60" ry="60" width="200" height="100" style="fill:white; stroke:black;" />


        <text x="60" y="65">End</text>
      </g>

-->

    </g>



  </svg>



</svg>


