<?xml version="1.0" encoding="utf-8"?>
<svg viewBox="0 0 500 500" xmlns="http://www.w3.org/2000/svg">
  <g>
    <rect x="20" y="20" width="460" height="460" rx="20" ry="20" style="fill: rgb(255, 255, 255);"/>
    <g transform="matrix(0.900002, 0, 0, 0.900002, 24.999483, 24.999495)">
      <g transform="matrix(1, 0, 0, 1, 0.000592, -0.000074)">
        <g>
          <g>
            <g transform="matrix(1.315604, 0, 0, 1.315604, -78.901573, -78.900261)" style="">
              <path d="M 108.009 123.327 L 123.33 108.006 L 163 127.792 C 149.402 137.49 137.492 149.4 127.794 162.997 L 108.009 123.327 C 107.924 123.242 107.924 123.412 108.009 123.327 Z M 167.293 78.632 L 187.31 70.34 L 216.373 103.783 C 199.837 107.57 184.342 114.091 170.39 122.844 L 167.293 78.632 Z M 239.167 60.026 L 260.834 60.026 L 274.89 102.054 C 266.794 100.703 258.479 99.999 250 99.999 C 241.521 99.999 233.206 100.703 225.111 102.054 L 239.167 60.026 Z M 312.692 70.341 L 332.709 78.633 L 329.611 122.845 C 315.66 114.092 300.165 107.571 283.628 103.783 L 312.692 70.341 Z M 376.671 108.007 L 391.992 123.328 L 372.206 162.998 C 362.509 149.401 350.598 137.49 337.001 127.793 L 376.671 108.007 Z M 421.367 167.29 L 429.658 187.308 L 396.216 216.37 C 392.428 199.833 385.907 184.339 377.154 170.387 L 421.367 167.29 Z M 439.973 239.166 L 439.973 260.833 L 397.945 274.889 C 399.296 266.793 400 258.478 400 249.999 C 400 241.52 399.296 233.205 397.945 225.11 L 439.973 239.166 Z M 429.658 312.69 L 421.366 332.708 L 377.154 329.61 C 385.907 315.658 392.428 300.164 396.216 283.627 L 429.658 312.69 Z M 391.991 376.67 L 376.67 391.991 L 337.001 372.205 C 350.598 362.508 362.509 350.598 372.206 337 L 391.991 376.67 Z M 332.707 421.365 L 312.69 429.657 L 283.628 396.215 C 300.164 392.427 315.658 385.907 329.61 377.154 L 332.707 421.365 Z M 260.833 439.973 L 239.166 439.973 L 225.11 397.943 C 233.205 399.295 241.521 399.999 250 399.999 C 258.479 399.999 266.794 399.295 274.89 397.944 L 260.833 439.973 Z M 187.308 429.657 L 167.291 421.366 L 170.389 377.153 C 184.341 385.906 199.835 392.427 216.372 396.215 L 187.308 429.657 Z M 123.329 391.99 L 108.008 376.669 L 127.794 337 C 137.491 350.597 149.401 362.508 162.999 372.205 L 123.329 391.99 Z M 78.633 332.707 L 70.342 312.689 L 103.784 283.627 C 107.572 300.164 114.093 315.658 122.846 329.61 L 78.633 332.707 Z M 60.027 260.832 L 60.027 239.165 L 102.055 225.109 C 100.704 233.205 100 241.52 100 249.999 C 100 258.478 100.704 266.793 102.055 274.888 L 60.027 260.832 Z M 70.342 187.308 L 78.634 167.29 L 122.846 170.388 C 114.093 184.34 107.572 199.834 103.784 216.371 L 70.342 187.308 Z M 260.834 60.026 C 260.834 59.906 260.953 60.026 260.834 60.026 Z M 239.167 60.026 C 239.047 60.026 239.167 59.906 239.167 60.026 Z M 439.973 260.833 C 440.093 260.833 439.973 260.952 439.973 260.833 Z M 439.973 239.166 C 439.973 239.046 440.093 239.166 439.973 239.166 Z M 60.027 239.165 C 59.907 239.165 60.027 239.046 60.027 239.165 Z M 60.027 260.832 C 60.027 260.952 59.907 260.832 60.027 260.832 Z M 239.166 439.973 C 239.166 440.093 239.047 439.973 239.166 439.973 Z M 260.833 439.973 C 260.953 439.973 260.833 440.093 260.833 439.973 Z M 391.992 123.328 C 392.077 123.243 392.076 123.412 391.992 123.328 Z M 376.671 108.007 C 376.586 107.922 376.756 107.922 376.671 108.007 Z M 376.67 391.991 C 376.755 392.076 376.586 392.075 376.67 391.991 Z M 391.991 376.67 C 392.076 376.586 392.076 376.755 391.991 376.67 Z M 123.33 108.006 C 123.245 107.922 123.414 107.922 123.33 108.006 Z M 108.008 376.669 C 107.923 376.754 107.924 376.585 108.008 376.669 Z M 123.329 391.99 C 123.414 392.075 123.244 392.075 123.329 391.99 Z M 332.709 78.633 C 332.755 78.522 332.819 78.678 332.709 78.633 Z M 312.692 70.341 C 312.581 70.295 312.738 70.23 312.692 70.341 Z M 421.366 332.708 C 421.477 332.754 421.321 332.818 421.366 332.708 Z M 429.658 312.69 C 429.704 312.579 429.769 312.736 429.658 312.69 Z M 78.634 167.29 C 78.523 167.244 78.679 167.18 78.634 167.29 Z M 70.342 187.308 C 70.296 187.419 70.231 187.262 70.342 187.308 Z M 167.291 421.366 C 167.245 421.476 167.181 421.32 167.291 421.366 Z M 187.308 429.657 C 187.419 429.703 187.262 429.768 187.308 429.657 Z M 429.658 187.308 C 429.769 187.262 429.704 187.417 429.658 187.308 Z M 421.367 167.29 C 421.321 167.179 421.478 167.244 421.367 167.29 Z M 312.69 429.657 C 312.736 429.768 312.58 429.702 312.69 429.657 Z M 332.707 421.365 C 332.818 421.319 332.753 421.476 332.707 421.365 Z M 187.31 70.34 C 187.264 70.229 187.42 70.294 187.31 70.34 Z M 167.293 78.632 C 167.182 78.677 167.247 78.521 167.293 78.632 Z M 70.342 312.689 C 70.231 312.735 70.296 312.579 70.342 312.689 Z M 78.633 332.707 C 78.679 332.818 78.522 332.753 78.633 332.707 Z M 400 249.999 C 400 332.842 332.843 399.999 250 399.999 C 167.157 399.999 100 332.842 100 249.999 C 100 167.156 167.157 99.999 250 99.999 C 332.843 99.999 400 167.156 400 249.999 Z" style="fill: rgb(0, 0, 128);"/>
            </g>
            <ellipse style="stroke: rgb(0, 0, 0); fill: rgb(0, 0, 128);" cx="250" cy="250" rx="230" ry="230"/>
          </g>
          <ellipse style="stroke: rgb(0, 0, 0); fill: rgb(255, 255, 255);" cx="249.999" cy="250" rx="200" ry="200"/>
        </g>
        <g transform="matrix(1.546317, 0, 0, 1.546317, -111.523232, -762.98053)">
          <path d="M 236.967 540.783 L 316.898 574.264 L 348.15 655.093 L 312.416 735.921 L 230.628 769.402 L 150.695 735.921 L 119.442 655.093 L 155.176 574.264 L 236.967 540.783 Z" style="stroke: rgb(0, 0, 0); fill: rgb(0, 0, 128);" transform="matrix(-0.69724, 0.716838, -0.716838, -0.69724, 866.402992, 944.255327)"/>
          <ellipse style="stroke: rgb(0, 0, 0); fill: rgb(255, 255, 255);" cx="234.009" cy="655.547" rx="90.87" ry="93.424"/>
          <ellipse style="stroke: rgb(0, 0, 0); fill: none;" cx="250" cy="130" rx="27.648" ry="27.637" transform="matrix(-0.69724, 0.716838, -0.697508, -0.717113, 537.590049, 608.658649)"/>
          <ellipse style="stroke: rgb(0, 0, 0); fill: none;" cx="250" cy="130" rx="27.648" ry="27.637" transform="matrix(-0.69724, -0.716838, 0.697508, -0.717113, 278.961133, 967.425436)"/>
          <ellipse style="stroke: rgb(0, 0, 0); fill: none;" cx="233.556" cy="598.335" rx="27.262" ry="28.028"/>
          <ellipse style="stroke: rgb(0, 0, 0); fill: rgb(0, 0, 128);" cx="231.355" cy="607.382" rx="37.685" ry="38.744"/>
          <ellipse style="stroke: rgb(0, 0, 0); fill: rgb(255, 255, 255);" cx="231.355" cy="607.382" rx="31.406" ry="32.288"/>
          <path d="M 247.91 602.83 C 246.349 598.467 244.411 594.414 242.103 591.444 C 239.797 588.48 237.189 586.642 234.198 586.618 C 233.508 605.974 220.954 620.727 211.356 626.209 L 252.634 626.209 C 252.617 621.365 251.034 611.561 247.91 602.83 Z" style="stroke: rgb(0, 0, 0); fill: rgb(0, 0, 128);"/>
          <path d="M 208.619 622.979 C 208.619 619.536 219.366 619.536 219.366 622.979 L 219.366 628.147 L 208.619 628.147 L 208.619 622.979 Z" style="fill: rgb(255, 255, 255);"/>
          <path d="M 225.98 622.979 C 225.98 619.536 236.728 619.536 236.728 622.979 L 236.728 628.147 L 225.98 628.147 L 225.98 622.979 Z" style="fill: rgb(255, 255, 255);"/>
          <path d="M 219.366 622.979 C 219.366 626.712 225.98 626.137 225.98 622.979 L 225.98 628.147 L 219.366 628.147 L 219.366 622.979 Z" style="fill: rgb(255, 255, 255);"/>
          <path d="M 243.344 622.979 C 243.344 619.536 254.092 619.536 254.092 622.979 L 254.092 628.147 L 243.344 628.147 L 243.344 622.979 Z" style="fill: rgb(255, 255, 255);"/>
          <path d="M 236.728 622.979 C 236.728 626.712 243.344 626.137 243.344 622.979 L 243.344 628.147 L 236.728 628.147 L 236.728 622.979 Z" style="fill: rgb(255, 255, 255);"/>
          <path d="M 209.989 546.845 L 209.991 546.845 L 210.187 546.739 C 210.12 546.776 210.053 546.811 209.989 546.845 Z" style="fill: none;"/>
          <ellipse style="stroke: rgb(0, 0, 0); fill: rgb(0, 0, 128);" cx="275.323" cy="684.871" rx="37.685" ry="38.744"/>
          <ellipse style="stroke: rgb(0, 0, 0); fill: rgb(255, 255, 255);" cx="275.323" cy="684.871" rx="31.406" ry="32.288"/>
          <path d="M 292.059 701.815 C 286.588 707.44 284.71 701.815 275.647 701.815 C 266.582 701.815 264.706 707.44 259.235 701.815 C 253.765 696.191 267.475 684.942 275.647 684.942 C 283.817 684.942 297.529 696.191 292.059 701.815 Z" style="stroke: rgb(0, 0, 0); fill: rgb(0, 0, 128);"/>
          <path d="M 274.941 676.368 C 274.941 680.113 271.988 683.149 268.346 683.149 C 264.704 683.149 261.751 680.113 261.751 676.368 C 261.751 672.624 267.613 665.571 268.589 665.571 C 269.566 665.571 274.941 672.624 274.941 676.368 Z" style="stroke: rgb(0, 0, 0); fill: rgb(0, 0, 128);"/>
          <path d="M 289.636 676.226 C 289.636 679.971 286.684 683.006 283.041 683.006 C 279.399 683.006 276.447 679.971 276.447 676.226 C 276.447 672.482 282.311 665.427 283.287 665.427 C 284.263 665.427 289.636 672.482 289.636 676.226 Z" style="stroke: rgb(0, 0, 0); fill: rgb(0, 0, 128);"/>
          <path d="M 259.866 687.838 C 259.866 690.734 257.574 693.079 254.748 693.079 C 251.922 693.079 249.631 690.734 249.631 687.838 C 249.631 684.942 254.18 679.49 254.937 679.49 C 255.696 679.49 259.866 684.942 259.866 687.838 Z" style="stroke: rgb(0, 0, 0); fill: rgb(0, 0, 128);"/>
          <path d="M 301.012 687.325 C 301.012 690.221 298.72 692.567 295.894 692.567 C 293.068 692.567 290.777 690.221 290.777 687.325 C 290.777 684.432 295.326 678.979 296.083 678.979 C 296.842 678.979 301.012 684.432 301.012 687.325 Z" style="stroke: rgb(0, 0, 0); fill: rgb(0, 0, 128);"/>
          <ellipse style="stroke: rgb(0, 0, 0); fill: rgb(0, 0, 128);" cx="193.67" cy="684.871" rx="37.685" ry="38.744"/>
          <ellipse style="stroke: rgb(0, 0, 0); fill: rgb(255, 255, 255);" cx="193.985" cy="685.193" rx="31.406" ry="32.288"/>
          <path d="M 193.67 663.113 L 213.044 673.992 L 213.044 695.75 L 193.67 706.629 L 174.297 695.75 L 174.297 673.992 L 193.67 663.113 Z" style="stroke: rgb(0, 0, 0); fill: rgb(0, 0, 128);" transform="matrix(0, 1, -1, 0, 878.541504, 491.2005)"/>
          <ellipse style="stroke: rgb(0, 0, 0); fill: rgb(0, 0, 128);" cx="193.67" cy="664.207" rx="6.282" ry="6.459"/>
          <path d="M 197.89 665.525 C 197.89 667.922 194.248 673.247 193.353 673.247 C 192.46 673.247 189.45 667.922 189.45 665.525 C 189.45 663.13 191.338 661.186 193.67 661.186 C 196.002 661.186 197.89 663.13 197.89 665.525 Z" style="stroke: rgb(0, 0, 0); fill: rgb(255, 255, 255);"/>
          <ellipse style="stroke: rgb(0, 0, 0); fill: rgb(0, 0, 128);" cx="250" cy="810" rx="6.371" ry="6.369" transform="matrix(0.697239, 0.716839, -0.697509, 0.717112, 601.744318, -85.769221)"/>
          <path d="M 213.235 674.76 C 213.301 677.122 209.752 682.374 208.847 682.374 C 207.939 682.374 204.741 677.122 204.676 674.76 C 204.61 672.396 206.472 670.481 208.837 670.481 C 211.202 670.481 213.17 672.396 213.235 674.76 Z" style="stroke: rgb(0, 0, 0); fill: rgb(255, 255, 255);" transform="matrix(0.697239, 0.716839, -0.716839, 0.697239, 548.152979, 55.008802)"/>
          <ellipse style="stroke: rgb(0, 0, 0); fill: rgb(0, 0, 128);" cx="250" cy="810" rx="6.371" ry="6.369" transform="matrix(-0.697239, 0.716839, 0.697509, 0.717112, -214.404566, -86.156672)"/>
          <path d="M 182.57 677.708 C 182.635 675.345 179.087 670.094 178.179 670.094 C 177.274 670.094 174.073 675.345 174.009 677.708 C 173.943 680.07 175.807 681.987 178.171 681.987 C 180.534 681.987 182.504 680.07 182.57 677.708 Z" style="stroke: rgb(0, 0, 0); fill: rgb(255, 255, 255);" transform="matrix(-0.697239, 0.716839, -0.716839, -0.697239, 787.211272, 1019.597691)"/>
          <ellipse style="stroke: rgb(0, 0, 0); fill: rgb(0, 0, 128);" cx="193.67" cy="-704.954" rx="6.282" ry="6.459" transform="matrix(1, 0, 0, -1, 0, 0)"/>
          <path d="M 197.89 703.636 C 197.89 701.241 194.248 695.914 193.353 695.914 C 192.46 695.914 189.45 701.241 189.45 703.636 C 189.45 706.034 191.338 707.975 193.67 707.975 C 196.002 707.975 197.89 706.034 197.89 703.636 Z" style="stroke: rgb(0, 0, 0); fill: rgb(255, 255, 255);"/>
        </g>
      </g>
    </g>
  </g>
</svg>